<svg width="28" height="32" viewBox="0 0 28 32" fill="none" xmlns="http://www.w3.org/2000/svg">
<path d="M26.8 30.8C27 30.6 27.1 30.3 27.1 30L24.8 8.30005C24.7 7.80005 24.3 7.40005 23.8 7.40005H19.7001V6.50005C19.7001 3.40005 17.2 0.800049 14 0.800049C10.9 0.800049 8.30005 3.30005 8.30005 6.50005V7.30005H4.20005C3.70005 7.30005 3.20005 7.70005 3.20005 8.20005L0.800049 30C0.800049 30.3 0.900049 30.6 1.10005 30.8C1.30005 31 1.60005 31.1 1.90005 31.1H26.1C26.4 31.1 26.6 31 26.8 30.8ZM26.8 30.8L26.7001 30.7001L26.8 30.8ZM26.8 30.8L26.7001 30.7001L26.8 30.8ZM10.4 6.50005C10.4 4.50005 12 2.90005 14 2.90005C16 2.90005 17.6 4.50005 17.6 6.50005V7.30005H10.4V6.50005ZM22.8 9.40005L24.9 29H3.00005L5.10005 9.40005H8.30005V11.2C8.30005 11.8 8.80005 12.2 9.30005 12.2C9.90005 12.2 10.3 11.7 10.3 11.2V9.40005H17.5V11.2C17.5 11.8 18 12.2 18.5 12.2C19.1 12.2 19.5 11.7 19.5 11.2V9.40005H22.8Z" fill="#4E2BFF" stroke="#4E2BFF" stroke-width="0.3"/>
</svg>
