<svg width="31" height="32" viewBox="0 0 31 32" fill="none" xmlns="http://www.w3.org/2000/svg">
<path d="M26.1228 5.28732C23.2616 2.42609 19.4565 0.85 15.4102 0.85C11.3636 0.85 7.55871 2.42609 4.69748 5.28732C1.83625 8.14855 0.260156 11.9534 0.260156 16C0.260156 20.0464 1.83625 23.8514 4.69748 26.7127C7.55871 29.5739 11.3636 31.15 15.4102 31.15C19.4565 31.15 23.2616 29.5739 26.1228 26.7127C28.9841 23.8514 30.5602 20.0464 30.5602 16C30.5602 11.9534 28.9841 8.14855 26.1228 5.28732ZM8.09495 26.852C8.74772 23.3597 11.7934 20.7945 15.4102 20.7945C19.0271 20.7945 22.0726 23.3597 22.7254 26.852C20.6353 28.2654 18.1177 29.0922 15.4102 29.0922C12.7026 29.0922 10.185 28.2654 8.09495 26.852ZM10.7907 14.1172C10.7907 11.57 12.8631 9.49778 15.4102 9.49778C17.9572 9.49778 20.0296 11.5702 20.0296 14.1172C20.0296 16.6642 17.9572 18.7367 15.4102 18.7367C12.8631 18.7367 10.7907 16.6642 10.7907 14.1172ZM19.2771 19.5575C20.9766 18.3463 22.0876 16.3594 22.0876 14.1172C22.0876 10.4352 19.0922 7.43997 15.4102 7.43997C11.7281 7.43997 8.7329 10.4352 8.7329 14.1172C8.7329 16.3594 9.84398 18.3463 11.5432 19.5575C10.6348 19.9625 9.788 20.5111 9.03653 21.1913C7.76077 22.346 6.83316 23.8094 6.33299 25.4246C3.85936 23.0412 2.31797 19.6974 2.31797 16C2.31797 8.78105 8.19121 2.90781 15.4102 2.90781C22.6291 2.90781 28.5023 8.78105 28.5023 16C28.5023 19.6977 26.961 23.0414 24.4873 25.4248C23.9872 23.8096 23.0598 22.3462 21.7838 21.1915C21.0323 20.5114 20.1857 19.9625 19.2771 19.5575Z" fill="#4E2BFF" stroke="#4E2BFF" stroke-width="0.3"/>
</svg>
