<svg width="29" height="18" viewBox="0 0 29 18" fill="none" xmlns="http://www.w3.org/2000/svg">
<path d="M27.9083 8.71924L27.9084 8.7193C28.1639 9.05646 28.1639 9.51466 27.9084 9.85182L27.9083 9.85184C27.7853 10.0141 26.2825 11.9662 23.889 13.8787C21.4971 15.7899 18.2033 17.6714 14.5001 17.6714C10.797 17.6714 7.50318 15.7899 5.11131 13.8787C2.71785 11.9663 1.21506 10.0142 1.09195 9.85217L1.09192 9.85213C0.836046 9.51503 0.836008 9.05644 1.09192 8.71954C1.21506 8.55734 2.71785 6.6052 5.11131 4.69273C7.50318 2.78153 10.797 0.9 14.5001 0.9C18.2033 0.9 21.4971 2.78153 23.889 4.69269C26.2825 6.60512 27.7853 8.55718 27.9083 8.71924ZM14.5001 15.7571C17.1738 15.7571 19.6758 14.5319 21.6877 13.0969C23.6459 11.7003 25.1304 10.1119 25.8442 9.28506C25.1314 8.45763 23.6497 6.8695 21.6927 5.47339C19.6821 4.03892 17.1797 2.81428 14.5001 2.81428C11.8266 2.81428 9.32474 4.03931 7.31281 5.47419C5.35469 6.8707 3.87012 8.45917 3.15601 9.28636C3.86889 10.1138 5.35058 11.7019 7.30749 13.098C9.31817 14.5325 11.8206 15.7571 14.5001 15.7571Z" fill="#4E2BFF" stroke="#4E2BFF" stroke-width="0.2"/>
<path d="M14.5001 4.04286C17.4966 4.04286 19.9408 6.39126 19.9408 9.28574C19.9408 12.1802 17.4966 14.5286 14.5001 14.5286C11.5037 14.5286 9.05944 12.1802 9.05944 9.28574C9.05944 6.39126 11.5037 4.04286 14.5001 4.04286ZM14.5001 12.6143C16.4118 12.6143 17.9606 11.1175 17.9606 9.28574C17.9606 7.45395 16.4117 5.95719 14.5001 5.95719C12.5885 5.95719 11.0397 7.45395 11.0397 9.28574C11.0397 11.1175 12.5885 12.6143 14.5001 12.6143Z" fill="#4E2BFF" stroke="#4E2BFF" stroke-width="0.2"/>
</svg>
