<svg width="23" height="22" viewBox="0 0 23 22" fill="none" xmlns="http://www.w3.org/2000/svg">
<path d="M11.9285 0.112549H13.3634V2.34038C16.0682 2.35557 18.776 2.31304 21.4788 2.35253C21.6097 2.33455 21.7429 2.34672 21.8684 2.38811C21.9938 2.4295 22.1081 2.49901 22.2026 2.59134C22.2971 2.68367 22.3692 2.79637 22.4135 2.92083C22.4578 3.0453 22.473 3.17823 22.458 3.30948C22.5006 7.92818 22.4479 12.5499 22.4833 17.1716C22.539 17.683 22.455 18.1999 22.2403 18.6673C21.845 18.8704 21.3998 18.9562 20.9573 18.9144C18.4257 18.9023 15.894 18.9073 13.3624 18.9073V21.3782H11.7898C7.93257 20.6906 4.06931 20.0618 0.206055 19.3995C0.206055 13.6301 0.206055 7.86202 0.206055 2.09532C4.11387 1.43507 8.01865 0.76267 11.9285 0.112549Z" fill="white"/>
<path d="M13.3623 3.08063H21.7126V18.1691H13.3623V16.1853H19.4382V15.201H13.3623V13.9605H19.4382V12.9732H13.3643C13.3643 12.4881 13.3643 12.0041 13.3643 11.519C13.8615 11.6942 14.3908 11.7588 14.9155 11.7085C15.4402 11.6581 15.9475 11.4939 16.4023 11.2274C16.8606 10.9363 17.2417 10.5387 17.5131 10.0684C17.7845 9.59809 17.9381 9.06915 17.9607 8.52666C16.8468 8.51957 15.739 8.52666 14.6312 8.52666C14.6312 7.45123 14.6433 6.37478 14.6089 5.30238C14.1937 5.38137 13.7785 5.46542 13.3664 5.55251V3.08063H13.3623Z" fill="#D24625"/>
<path d="M15.1354 4.77777C15.9892 4.82161 16.7978 5.1746 17.4105 5.77087C18.0232 6.36714 18.398 7.16595 18.465 8.01825C17.351 8.0304 16.2432 8.02534 15.1323 8.02534C15.1333 6.9418 15.1303 5.85928 15.1354 4.77777Z" fill="white"/>
<path d="M4.26799 6.6462C5.64215 6.71 7.30594 6.11456 8.44618 7.12113C8.71504 7.45517 8.90884 7.84317 9.01441 8.25877C9.11997 8.67436 9.13483 9.10782 9.05797 9.52967C8.98112 9.95152 8.81434 10.3519 8.56899 10.7035C8.32364 11.0552 8.00545 11.3499 7.63606 11.5677C7.04549 11.7966 6.40724 11.8749 5.77886 11.7955C5.77886 12.7623 5.77886 13.729 5.77886 14.6958C5.27726 14.6532 4.77532 14.612 4.27305 14.5722C4.25077 11.9312 4.24571 9.2882 4.27305 6.64721L4.26799 6.6462Z" fill="#D24625"/>
<path d="M5.77539 7.98387C6.27362 7.9616 6.88931 7.87248 7.22753 8.3302C7.3626 8.57783 7.43606 8.85435 7.4417 9.13636C7.44734 9.41838 7.385 9.69761 7.25994 9.95044C6.97133 10.4568 6.31919 10.4102 5.81489 10.4699C5.75818 9.6426 5.76324 8.81425 5.77539 7.98387Z" fill="white"/>
</svg>
