<svg width="22" height="26" viewBox="0 0 22 26" fill="none" xmlns="http://www.w3.org/2000/svg">
<path d="M20.2405 5.25658C20.2295 4.71227 19.7851 4.27677 19.2407 4.27677H4.45184C3.89956 4.27677 3.45184 3.82905 3.45184 3.27677V2.97825C3.45184 2.55861 3.79327 2.21704 4.21305 2.21704H6.29521C6.53015 2.21704 6.7206 2.40749 6.7206 2.64242C6.7206 2.87736 6.91105 3.06781 7.14599 3.06781H9.39225C9.94453 3.06781 10.3922 2.6201 10.3922 2.06781V1.91852C10.3922 1.36623 9.94453 0.918518 9.39225 0.918518H7.01157C6.85083 0.918518 6.72053 1.04882 6.72053 1.20956C6.72053 1.3703 6.59022 1.50061 6.42948 1.50061H4.21299C3.39827 1.50061 2.73534 2.16353 2.73534 2.97825V3.3835C2.73534 3.87684 2.33541 4.27677 1.84207 4.27677C1.35576 4.27677 0.958797 4.66579 0.948977 5.152L0.808202 12.1224C0.79689 12.6824 1.24781 13.1426 1.808 13.1426H19.3794C19.9396 13.1426 20.3905 12.6824 20.3792 12.1224L20.2405 5.25658Z" fill="white"/>
<path d="M1.25778 15.0232H19.9296C20.5973 15.0232 21.1386 14.4819 21.1386 13.8143H0.0488281C0.0488281 14.4819 0.590079 15.0232 1.25778 15.0232Z" fill="white"/>
<path d="M11.1983 15.4709H9.98933V23.9114C9.98933 24.2205 9.73871 24.471 9.42967 24.471H5.66846V25.7695H15.5194V24.4711H11.7582C11.4491 24.4711 11.1985 24.2205 11.1984 23.9114L11.1983 15.4709Z" fill="white"/>
</svg>
