<svg width="19" height="24" viewBox="0 0 19 24" fill="none" xmlns="http://www.w3.org/2000/svg">
<path d="M18.3459 6.12859L12.459 0.241638H2.64741C1.56363 0.241638 0.685059 1.12019 0.685059 2.20396V21.8271C0.685059 22.9109 1.56363 23.7894 2.64741 23.7894H16.3835C17.4673 23.7894 18.3459 22.9109 18.3459 21.8271V6.12859Z" fill="white"/>
<path d="M14.4214 6.12871C13.8872 6.12871 13.4041 5.91371 13.0503 5.56744L18.346 10.8632V6.12871H14.4214Z" fill="url(#paint0_linear)"/>
<path opacity="0.1" d="M16.3835 23.5442H2.64741C1.56363 23.5442 0.685059 22.6656 0.685059 21.5818V21.8271C0.685059 22.9109 1.56363 23.7895 2.64741 23.7895H16.3835C17.4673 23.7895 18.3459 22.9109 18.3459 21.8271V21.5818C18.3459 22.6656 17.4673 23.5442 16.3835 23.5442Z" fill="black"/>
<path d="M12.459 0.241638V4.16623C12.459 5.25002 13.3376 6.12859 14.4213 6.12859H18.3459L12.459 0.241638Z" fill="#FFE083"/>
<path opacity="0.1" d="M14.4213 5.88332C13.3376 5.88332 12.459 5.00475 12.459 3.92096V4.16621C12.459 5.25 13.3376 6.12857 14.4213 6.12857H18.3459L18.1007 5.88332H14.4213Z" fill="black"/>
<path opacity="0.2" d="M12.459 0.241638H2.64741C1.56363 0.241638 0.685059 1.12015 0.685059 2.20396V2.44924C0.685059 1.36544 1.56363 0.486924 2.64741 0.486924H12.459" fill="white"/>
<path d="M12.9492 9.07208H6.08111C5.26954 9.07208 4.60938 9.73224 4.60938 10.5438V16.4308C4.60938 17.2423 5.26954 17.9025 6.08111 17.9025H12.9492C13.7608 17.9025 14.4209 17.2423 14.4209 16.4308V10.5438C14.4209 9.73224 13.7608 9.07208 12.9492 9.07208ZM5.59049 15.4496V11.0344H13.4398V15.4496H5.59049Z" fill="#FFC720"/>
<defs>
<linearGradient id="paint0_linear" x1="14.2339" y1="4.38381" x2="19.5296" y2="9.67959" gradientUnits="userSpaceOnUse">
<stop stop-opacity="0.1"/>
<stop offset="1" stop-opacity="0"/>
</linearGradient>
</defs>
</svg>
