<svg width="18" height="18" viewBox="0 0 18 18" fill="none" xmlns="http://www.w3.org/2000/svg">
<path d="M10.7221 10.6194C11.2712 10.0702 11.5458 9.40766 11.5458 8.63158C11.5458 7.85551 11.2712 7.19292 10.7221 6.64382C10.173 6.09471 9.51041 5.82016 8.73434 5.82016C7.95826 5.82016 7.29567 6.09471 6.74657 6.64382C6.19746 7.19292 5.92291 7.85551 5.92291 8.63158C5.92291 9.40766 6.19746 10.0702 6.74657 10.6194C7.29567 11.1685 7.95826 11.443 8.73434 11.443C9.51041 11.443 10.173 11.1685 10.7221 10.6194ZM11.7984 5.56757C12.6403 6.40953 13.0613 7.43087 13.0613 8.63158C13.0613 9.8323 12.6403 10.8536 11.7984 11.6956C10.9564 12.5376 9.93505 12.9585 8.73434 12.9585C7.53362 12.9585 6.51228 12.5376 5.67032 11.6956C4.82835 10.8536 4.40737 9.8323 4.40737 8.63158C4.40737 7.43087 4.82835 6.40953 5.67032 5.56757C6.51228 4.7256 7.53362 4.30462 8.73434 4.30462C9.93505 4.30462 10.9564 4.7256 11.7984 5.56757ZM13.9509 3.41507C14.1485 3.61275 14.2474 3.85069 14.2474 4.12891C14.2474 4.40712 14.1485 4.64507 13.9509 4.84274C13.7532 5.04042 13.5152 5.13926 13.237 5.13926C12.9588 5.13926 12.7209 5.04042 12.5232 4.84274C12.3255 4.64507 12.2267 4.40712 12.2267 4.12891C12.2267 3.85069 12.3255 3.61275 12.5232 3.41507C12.7209 3.21739 12.9588 3.11855 13.237 3.11855C13.5152 3.11855 13.7532 3.21739 13.9509 3.41507ZM9.56898 1.71283C9.0638 1.71283 8.78559 1.71283 8.73434 1.71283C8.68308 1.71283 8.40121 1.71283 7.88871 1.71283C7.38353 1.70551 6.99916 1.70551 6.73558 1.71283C6.47201 1.71283 6.11692 1.72382 5.67032 1.74578C5.23103 1.76042 4.85398 1.79703 4.53916 1.8556C4.23166 1.90685 3.97175 1.97274 3.75942 2.05328C3.39335 2.19971 3.07121 2.41203 2.793 2.69024C2.51478 2.96846 2.30246 3.2906 2.15603 3.65667C2.0755 3.869 2.00594 4.13257 1.94737 4.44739C1.89612 4.75489 1.85951 5.13194 1.83755 5.57855C1.82291 6.01783 1.81192 6.36926 1.8046 6.63283C1.8046 6.89641 1.8046 7.28444 1.8046 7.79694C1.81192 8.30212 1.81558 8.58033 1.81558 8.63158C1.81558 8.68283 1.81192 8.96471 1.8046 9.47721C1.8046 9.98239 1.8046 10.3668 1.8046 10.6303C1.81192 10.8939 1.82291 11.249 1.83755 11.6956C1.85951 12.1349 1.89612 12.5119 1.94737 12.8268C2.00594 13.1343 2.0755 13.3942 2.15603 13.6065C2.30246 13.9726 2.51478 14.2947 2.793 14.5729C3.07121 14.8511 3.39335 15.0635 3.75942 15.2099C3.97175 15.2904 4.23166 15.36 4.53916 15.4185C4.85398 15.4698 5.23103 15.5064 5.67032 15.5284C6.11692 15.543 6.47201 15.554 6.73558 15.5613C6.99916 15.5613 7.38353 15.5613 7.88871 15.5613C8.40121 15.554 8.68308 15.5503 8.73434 15.5503C8.78559 15.5503 9.0638 15.554 9.56898 15.5613C10.0815 15.5613 10.4695 15.5613 10.7331 15.5613C10.9967 15.554 11.3481 15.543 11.7874 15.5284C12.234 15.5064 12.611 15.4698 12.9185 15.4185C13.2334 15.36 13.4969 15.2904 13.7092 15.2099C14.0753 15.0635 14.3975 14.8511 14.6757 14.5729C14.9539 14.2947 15.1662 13.9726 15.3126 13.6065C15.3932 13.3942 15.4591 13.1343 15.5103 12.8268C15.5689 12.5119 15.6055 12.1349 15.6201 11.6956C15.6421 11.249 15.6531 10.8939 15.6531 10.6303C15.6604 10.3668 15.6604 9.98239 15.6531 9.47721C15.6531 8.96471 15.6531 8.68283 15.6531 8.63158C15.6531 8.58033 15.6531 8.30212 15.6531 7.79694C15.6604 7.28444 15.6604 6.89641 15.6531 6.63283C15.6531 6.36926 15.6421 6.01783 15.6201 5.57855C15.6055 5.13194 15.5689 4.75489 15.5103 4.44739C15.4591 4.13257 15.3932 3.869 15.3126 3.65667C15.1662 3.2906 14.9539 2.96846 14.6757 2.69024C14.3975 2.41203 14.0753 2.19971 13.7092 2.05328C13.4969 1.97274 13.2334 1.90685 12.9185 1.8556C12.611 1.79703 12.234 1.76042 11.7874 1.74578C11.3481 1.72382 10.9967 1.71283 10.7331 1.71283C10.4695 1.70551 10.0815 1.70551 9.56898 1.71283ZM17.1137 5.15024C17.1503 5.79453 17.1686 6.95498 17.1686 8.63158C17.1686 10.3082 17.1503 11.4686 17.1137 12.1129C17.0405 13.6358 16.5866 14.8145 15.7519 15.6492C14.9173 16.4838 13.7385 16.9377 12.2157 17.011C11.5714 17.0476 10.4109 17.0659 8.73434 17.0659C7.05773 17.0659 5.89728 17.0476 5.253 17.011C3.73014 16.9377 2.55139 16.4838 1.71675 15.6492C0.882102 14.8145 0.428174 13.6358 0.35496 12.1129C0.318352 11.4686 0.300049 10.3082 0.300049 8.63158C0.300049 6.95498 0.318352 5.79453 0.35496 5.15024C0.428174 3.62739 0.882102 2.44864 1.71675 1.61399C2.55139 0.779351 3.73014 0.325423 5.253 0.252209C5.89728 0.215602 7.05773 0.197298 8.73434 0.197298C10.4109 0.197298 11.5714 0.215602 12.2157 0.252209C13.7385 0.325423 14.9173 0.779351 15.7519 1.61399C16.5866 2.44864 17.0405 3.62739 17.1137 5.15024Z" fill="white"/>
</svg>
