<svg width="13" height="21" viewBox="0 0 13 21" fill="none" xmlns="http://www.w3.org/2000/svg">
<path d="M9.67396 9.29176C8.70021 10.2655 7.52512 10.7524 6.14869 10.7524C4.77226 10.7524 3.59717 10.2655 2.62342 9.29176C1.64967 8.31801 1.1628 7.14658 1.1628 5.77748C1.1628 4.40105 1.64967 3.22596 2.62342 2.25221C3.59717 1.27846 4.77226 0.791583 6.14869 0.791583C7.52512 0.791583 8.70021 1.27846 9.67396 2.25221C10.6477 3.22596 11.1346 4.40105 11.1346 5.77748C11.1346 7.14658 10.6477 8.31801 9.67396 9.29176ZM7.87289 4.0423C7.39699 3.55908 6.82226 3.31748 6.14869 3.31748C5.47512 3.31748 4.89672 3.55908 4.41351 4.0423C3.93762 4.51819 3.69967 5.09658 3.69967 5.77748C3.69967 6.45105 3.93762 7.02944 4.41351 7.51266C4.89672 7.98855 5.47512 8.22649 6.14869 8.22649C6.82226 8.22649 7.39699 7.98855 7.87289 7.51266C8.3561 7.02944 8.59771 6.45105 8.59771 5.77748C8.59771 5.09658 8.3561 4.51819 7.87289 4.0423ZM11.8924 11.3564C11.9875 11.5541 12.0424 11.7371 12.0571 11.9055C12.0717 12.0666 12.0534 12.213 12.0022 12.3448C11.9582 12.4766 11.8631 12.6194 11.7166 12.7731C11.5702 12.9195 11.4128 13.055 11.2444 13.1794C11.0833 13.2966 10.86 13.4467 10.5745 13.6297C9.73253 14.1642 8.5794 14.5083 7.11512 14.662L7.91681 15.4527L10.849 18.385C11.0687 18.6119 11.1785 18.8828 11.1785 19.1977C11.1785 19.5125 11.0687 19.7797 10.849 19.9994L10.7173 20.1421C10.4903 20.3618 10.2194 20.4716 9.90458 20.4716C9.58976 20.4716 9.31887 20.3618 9.0919 20.1421C8.60137 19.6443 7.62396 18.6632 6.15967 17.1989L3.22744 20.1421C3.00047 20.3618 2.72958 20.4716 2.41476 20.4716C2.09994 20.4716 1.83271 20.3618 1.61306 20.1421L1.48128 19.9994C1.25431 19.7797 1.14083 19.5125 1.14083 19.1977C1.14083 18.8828 1.25431 18.6119 1.48128 18.385L4.41351 15.4527L5.20422 14.662C3.71797 14.5083 2.55753 14.1642 1.72289 13.6297C1.43735 13.4467 1.21039 13.2966 1.04199 13.1794C0.880921 13.055 0.727171 12.9195 0.580742 12.7731C0.434314 12.6194 0.335474 12.4766 0.284224 12.3448C0.240296 12.213 0.225653 12.0666 0.240296 11.9055C0.254939 11.7371 0.309849 11.5541 0.405028 11.3564C0.478242 11.21 0.580742 11.0819 0.712528 10.972C0.844314 10.8622 0.998064 10.7817 1.17378 10.7304C1.34949 10.6792 1.55449 10.6865 1.78878 10.7524C2.02306 10.8183 2.26101 10.9464 2.50262 11.1368C2.53922 11.166 2.59414 11.2063 2.66735 11.2576C2.74056 11.3088 2.89797 11.4003 3.13958 11.5321C3.38119 11.6566 3.63378 11.7664 3.89735 11.8616C4.16092 11.9568 4.49771 12.0446 4.90771 12.1252C5.31771 12.2057 5.73137 12.246 6.14869 12.246C6.81494 12.246 7.4519 12.1544 8.05958 11.9714C8.66726 11.781 9.10655 11.5944 9.37744 11.4113L9.79476 11.1368C10.0364 10.9464 10.2743 10.8183 10.5086 10.7524C10.7429 10.6865 10.9479 10.6792 11.1236 10.7304C11.2993 10.7817 11.4531 10.8622 11.5849 10.972C11.7166 11.0819 11.8191 11.21 11.8924 11.3564Z" fill="white"/>
</svg>
