<svg width="22" height="13" viewBox="0 0 22 13" fill="none" xmlns="http://www.w3.org/2000/svg">
<path d="M21.0728 1.5023C21.2412 1.97087 20.6921 3.04712 19.4255 4.73105C19.2498 4.96533 19.0118 5.27649 18.7116 5.66453C18.4188 6.03792 18.2174 6.3015 18.1076 6.45525C17.9978 6.609 17.8843 6.79203 17.7672 7.00435C17.6573 7.20935 17.6134 7.3631 17.6354 7.4656C17.6647 7.56078 17.7123 7.68525 17.7781 7.839C17.8514 7.99275 17.9722 8.15016 18.1406 8.31123C18.3089 8.4723 18.5176 8.66632 18.7665 8.89328C18.7958 8.90792 18.8141 8.92257 18.8214 8.93721C19.8538 9.89632 20.553 10.7053 20.919 11.3643C20.941 11.4009 20.963 11.4485 20.9849 11.507C21.0142 11.5583 21.0398 11.6535 21.0618 11.7926C21.0911 11.9317 21.0911 12.0561 21.0618 12.166C21.0325 12.2758 20.941 12.3783 20.7873 12.4735C20.6335 12.5613 20.4175 12.6052 20.1393 12.6052L17.3279 12.6492C17.1522 12.6858 16.9472 12.6675 16.7129 12.5943C16.4786 12.521 16.2882 12.4405 16.1418 12.3527L15.9222 12.2209C15.7025 12.0671 15.4463 11.8328 15.1534 11.518C14.8606 11.2032 14.608 10.9213 14.3956 10.6724C14.1906 10.4161 13.9673 10.2038 13.7257 10.0354C13.4914 9.85971 13.2864 9.80114 13.1107 9.85971C13.0888 9.86703 13.0595 9.88167 13.0229 9.90364C12.9863 9.91828 12.924 9.96953 12.8362 10.0574C12.7483 10.1452 12.6678 10.2551 12.5946 10.3869C12.5287 10.5113 12.4664 10.7017 12.4079 10.9579C12.3566 11.2069 12.3347 11.4887 12.342 11.8035C12.342 11.9134 12.3273 12.0159 12.2981 12.111C12.2761 12.1989 12.2505 12.2648 12.2212 12.3087L12.1773 12.3636C12.0455 12.5027 11.8514 12.5833 11.5952 12.6052H10.3323C9.81243 12.6345 9.27797 12.576 8.72886 12.4295C8.17975 12.2758 7.69654 12.0818 7.27922 11.8475C6.86922 11.6059 6.49216 11.3643 6.14806 11.1227C5.81127 10.8737 5.55502 10.6614 5.37931 10.4857L5.10475 10.2221C5.03154 10.1489 4.92904 10.0391 4.79725 9.89266C4.67279 9.74623 4.41288 9.4131 4.01752 8.89328C3.62216 8.37346 3.23413 7.82069 2.85341 7.23498C2.4727 6.64926 2.02243 5.87685 1.50261 4.91775C0.990109 3.95864 0.514216 2.96292 0.0749302 1.9306C0.0310017 1.81346 0.00903739 1.71462 0.00903739 1.63408C0.00903739 1.55355 0.0200195 1.49498 0.0419838 1.45837L0.0859124 1.39248C0.195734 1.25337 0.404395 1.18382 0.711895 1.18382L3.721 1.16185C3.80886 1.17649 3.89306 1.20212 3.97359 1.23873C4.05413 1.26801 4.1127 1.2973 4.14931 1.32658L4.20422 1.35953C4.32136 1.44007 4.40922 1.55721 4.46779 1.71096C4.61422 2.07703 4.78261 2.45774 4.97297 2.8531C5.16332 3.24114 5.31341 3.53766 5.42323 3.74266L5.59895 4.06114C5.81127 4.50042 6.01627 4.88114 6.21395 5.20328C6.41163 5.52542 6.58734 5.77801 6.74109 5.96105C6.90216 6.13676 7.05591 6.27587 7.20234 6.37837C7.34877 6.48087 7.47323 6.53212 7.57573 6.53212C7.67823 6.53212 7.77707 6.51382 7.87225 6.47721C7.88689 6.46989 7.9052 6.45158 7.92716 6.4223C7.94913 6.39301 7.99306 6.31248 8.05895 6.18069C8.12484 6.04891 8.17243 5.87685 8.20172 5.66453C8.23832 5.45221 8.27493 5.15569 8.31154 4.77498C8.34815 4.39426 8.34815 3.93667 8.31154 3.40221C8.2969 3.10935 8.26395 2.84212 8.2127 2.60051C8.16145 2.35891 8.1102 2.19051 8.05895 2.09533L7.99306 1.96355C7.81002 1.71462 7.49886 1.55721 7.05957 1.49132C6.96439 1.47667 6.9827 1.38882 7.11448 1.22774C7.23163 1.08864 7.37073 0.978817 7.53181 0.898281C7.91984 0.707923 8.79475 0.620066 10.1565 0.634709C10.7569 0.642031 11.2511 0.68962 11.6391 0.777476C11.7856 0.814084 11.9064 0.865334 12.0015 0.931226C12.104 0.989798 12.1809 1.07766 12.2322 1.1948C12.2834 1.30462 12.32 1.42176 12.342 1.54623C12.3713 1.66337 12.3859 1.8281 12.3859 2.04042C12.3859 2.25275 12.3823 2.45408 12.3749 2.64444C12.3676 2.8348 12.3566 3.09471 12.342 3.42417C12.3347 3.74632 12.331 4.0465 12.331 4.32471C12.331 4.40525 12.3273 4.559 12.32 4.78596C12.3127 5.01292 12.309 5.18864 12.309 5.3131C12.3164 5.43757 12.331 5.58766 12.353 5.76337C12.3749 5.93176 12.4152 6.07453 12.4738 6.19167C12.5397 6.3015 12.6239 6.38935 12.7264 6.45525C12.7849 6.46989 12.8472 6.48453 12.9131 6.49917C12.9789 6.51382 13.0741 6.47355 13.1986 6.37837C13.3231 6.28319 13.4622 6.15873 13.6159 6.00498C13.7697 5.84391 13.96 5.59864 14.187 5.26917C14.4139 4.93239 14.6629 4.53703 14.9338 4.0831C15.3731 3.32167 15.7648 2.49801 16.1089 1.61212C16.1381 1.53891 16.1748 1.47667 16.2187 1.42542C16.2626 1.36685 16.3029 1.32658 16.3395 1.30462L16.3834 1.27167C16.3981 1.26435 16.4164 1.25703 16.4383 1.24971C16.4603 1.23507 16.5079 1.22408 16.5811 1.21676C16.6543 1.20212 16.7275 1.19846 16.8007 1.20578L19.9636 1.18382C20.2491 1.14721 20.4834 1.15819 20.6664 1.21676C20.8495 1.26801 20.963 1.32658 21.0069 1.39248L21.0728 1.5023Z" fill="white"/>
</svg>
